<?xml version="1.0" encoding="utf-8" standalone="no"?><!DOCTYPE svg PUBLIC "-//W3C//DTD SVG 20010904//EN" "http://www.w3.org/TR/2001/REC-SVG-20010904/DTD/svg10.dtd"><svg xmlns="http://www.w3.org/2000/svg" width="1240" height="727" xmlns:xlink="http://www.w3.org/1999/xlink"><source><![CDATA[John->Order Me: Hey Order Me. I'm hungry :(
Note right of Order Me: signUp/login
Order Me->John: Welcome John! What would you like to have?
Note left of John: Get the menu and select items
John->Order Me: I want tomato soup and biryani.. Uh! hey! make it spicy okay?  
Order Me->John: Sure John! Here is your Order & do track it!
Order Me -> Chef Damu: Hi Chef.. You got an order
Chef Damu -> Order Me: oh yes! 
Note right of Order Me: get list of orders pending
Order Me -> Chef Damu: here you go!!
Chef Damu -> Order Me: Food is ready.
Order Me -> John: John! Enjoy your feast!! and here is your bill!
John -> Order Me: oh! itsssss gooddddd!!! thanksssss!]]></source><desc></desc><defs><marker viewBox="0 0 5 5" markerWidth="5" markerHeight="5" orient="auto" refX="5" refY="2.5" id="markerArrowBlock"><path d="M 0 0 L 5 2.5 L 0 5 z"></path></marker><marker viewBox="0 0 9.6 16" markerWidth="4" markerHeight="16" orient="auto" refX="9.6" refY="8" id="markerArrowOpen"><path d="M 9.6,8 1.92,16 0,13.7 5.76,8 0,2.286 1.92,0 9.6,8 z"></path></marker></defs><g class="title"></g><g class="actor"><path d="M285.6640625,20C332.8,22.5 314.3,17.5 347.7,20.0C346.0,33.4 349.4,46.3 347.7,62.5C325.1,65.0 308.1,60.0 285.7,62.5C287.4,46.2 284.0,55.7 285.7,20.0" stroke="#000000" fill="#ffffff" style="stroke-width: 2;"></path><text x="295.6640625" y="44" style="font-size: 16px; font-family: danielbd;"><tspan x="295.6640625">John</tspan></text></g><g class="actor"><path d="M285.6640625,665C324.8,662.5 337.8,667.5 347.7,665.0C349.4,675.0 346.0,675.2 347.7,707.5C296.8,705.0 315.0,710.0 285.7,707.5C287.4,700.7 284.0,678.6 285.7,665.0" stroke="#000000" fill="#ffffff" style="stroke-width: 2;"></path><text x="295.6640625" y="689" style="font-size: 16px; font-family: danielbd;"><tspan x="295.6640625">John</tspan></text></g><path d="M316.7,62.5C292.6,549.0 340.8,223.1 316.7,665.0" stroke="#000000" fill="none" style="stroke-width: 2;"></path><g class="actor"><path d="M817.359375,20C891.8,24.3 834.8,15.7 926.1,20.0C927.8,29.1 924.4,35.6 926.1,62.5C900.0,58.2 905.7,66.8 817.4,62.5C819.1,26.8 815.7,55.7 817.4,20.0" stroke="#000000" fill="#ffffff" style="stroke-width: 2;"></path><text x="827.359375" y="44" style="font-size: 16px; font-family: danielbd;"><tspan x="827.359375">Order Me</tspan></text></g><g class="actor"><path d="M817.359375,665C894.4,660.7 900.0,669.3 926.1,665.0C927.8,673.1 924.4,700.7 926.1,707.5C843.5,711.8 870.7,703.2 817.4,707.5C819.1,679.7 815.7,693.1 817.4,665.0" stroke="#000000" fill="#ffffff" style="stroke-width: 2;"></path><text x="827.359375" y="689" style="font-size: 16px; font-family: danielbd;"><tspan x="827.359375">Order Me</tspan></text></g><path d="M871.7,62.5C895.8,555.8 847.6,190.2 871.7,665.0" stroke="#000000" fill="none" style="stroke-width: 2;"></path><g class="actor"><path d="M1083.203125,20C1131.7,14.9 1165.0,25.1 1210.5,20.0C1208.8,30.3 1212.2,39.6 1210.5,62.5C1179.9,57.4 1134.6,67.6 1083.2,62.5C1084.9,30.2 1081.5,47.0 1083.2,20.0" stroke="#000000" fill="#ffffff" style="stroke-width: 2;"></path><text x="1093.203125" y="44" style="font-size: 16px; font-family: danielbd;"><tspan x="1093.203125">Chef Damu</tspan></text></g><g class="actor"><path d="M1083.203125,665C1121.1,659.9 1113.7,670.1 1210.5,665.0C1212.2,694.9 1208.8,681.4 1210.5,707.5C1149.8,712.6 1113.7,702.4 1083.2,707.5C1081.5,683.0 1084.9,690.3 1083.2,665.0" stroke="#000000" fill="#ffffff" style="stroke-width: 2;"></path><text x="1093.203125" y="689" style="font-size: 16px; font-family: danielbd;"><tspan x="1093.203125">Chef Damu</tspan></text></g><path d="M1146.8,62.5C1122.7,158.9 1170.9,307.9 1146.8,665.0" stroke="#000000" fill="none" style="stroke-width: 2;"></path><g class="signal"><text x="471.0234375" y="90.25" style="font-size: 16px; font-family: danielbd;"><tspan x="471.0234375">Hey Order Me. I'm hungry :(</tspan></text><path d="M316.7,105.0C449.9,82.8 405.5,127.2 871.7,105.0" stroke="#000000" fill="none" style="stroke-width: 2; marker-end: url(&quot;#markerArrowBlock&quot;);"></path></g><g class="note"><path d="M891.71875,125C922.1,120.5 922.2,129.5 1005.3,125.0C1006.6,145.5 1004.0,132.8 1005.3,157.5C977.1,153.0 929.4,162.0 891.7,157.5C890.4,130.2 893.0,139.5 891.7,125.0" stroke="#000000" fill="#ffffff" style="stroke-width: 2;"></path><text x="896.71875" y="144" style="font-size: 16px; font-family: danielbd;"><tspan x="896.71875">signUp/login</tspan></text></g><g class="signal"><text x="399.1015625" y="185.25" style="font-size: 16px; font-family: danielbd;"><tspan x="399.1015625">Welcome John! What would you like to have?</tspan></text><path d="M871.7,200.0C599.7,222.2 571.9,177.8 316.7,200.0" stroke="#000000" fill="none" style="stroke-width: 2; marker-end: url(&quot;#markerArrowBlock&quot;);"></path></g><g class="note"><path d="M20,220C205.5,208.9 140.2,231.1 296.7,220.0C298.0,232.9 295.4,227.7 296.7,252.5C64.3,263.6 86.4,241.4 20.0,252.5C21.3,244.7 18.7,232.6 20.0,220.0" stroke="#000000" fill="#ffffff" style="stroke-width: 2;"></path><text x="25" y="239" style="font-size: 16px; font-family: danielbd;"><tspan x="25">Get the menu and select items</tspan></text></g><g class="signal"><text x="326.6875" y="280.25" style="font-size: 16px; font-family: danielbd;"><tspan x="326.6875">I want tomato soup and biryani.. Uh! hey! make it spicy okay?</tspan></text><path d="M316.7,295.0C738.5,272.8 628.4,317.2 871.7,295.0" stroke="#000000" fill="none" style="stroke-width: 2; marker-end: url(&quot;#markerArrowBlock&quot;);"></path></g><g class="signal"><text x="392.109375" y="322.75" style="font-size: 16px; font-family: danielbd;"><tspan x="392.078125">Sure John! Here is your Order &amp; do track it!</tspan></text><path d="M871.7,337.5C556.7,359.7 492.5,315.3 316.7,337.5" stroke="#000000" fill="none" style="stroke-width: 2; marker-end: url(&quot;#markerArrowBlock&quot;);"></path></g><g class="signal"><text x="893.0703125" y="365.25" style="font-size: 16px; font-family: danielbd;"><tspan x="893.0703125">Hi Chef.. You got an order</tspan></text><path d="M871.7,380.0C1053.3,369.0 941.0,391.0 1146.8,380.0" stroke="#000000" fill="none" style="stroke-width: 2; marker-end: url(&quot;#markerArrowBlock&quot;);"></path></g><g class="signal"><text x="979.2578125" y="407.75" style="font-size: 16px; font-family: danielbd;"><tspan x="979.2578125">oh yes!</tspan></text><path d="M1146.8,422.5C1025.2,411.5 1079.3,433.5 871.7,422.5" stroke="#000000" fill="none" style="stroke-width: 2; marker-end: url(&quot;#markerArrowBlock&quot;);"></path></g><g class="note"><path d="M891.71875,442.5C1089.2,433.1 1037.7,451.9 1126.8,442.5C1125.5,462.3 1128.1,469.0 1126.8,475.0C948.1,465.6 931.9,484.4 891.7,475.0C893.0,457.9 890.4,467.2 891.7,442.5" stroke="#000000" fill="#ffffff" style="stroke-width: 2;"></path><text x="900.78125" y="461.5" style="font-size: 16px; font-family: danielbd;"><tspan x="896.71875">get list of orders pending</tspan></text></g><g class="signal"><text x="953.3046875" y="502.75" style="font-size: 16px; font-family: danielbd;"><tspan x="953.3046875">here you go!!</tspan></text><path d="M871.7,517.5C1005.1,528.5 961.2,506.5 1146.8,517.5" stroke="#000000" fill="none" style="stroke-width: 2; marker-end: url(&quot;#markerArrowBlock&quot;);"></path></g><g class="signal"><text x="948.734375" y="545.25" style="font-size: 16px; font-family: danielbd;"><tspan x="948.734375">Food is ready.</tspan></text><path d="M1146.8,560.0C1059.2,571.0 1102.8,549.0 871.7,560.0" stroke="#000000" fill="none" style="stroke-width: 2; marker-end: url(&quot;#markerArrowBlock&quot;);"></path></g><g class="signal"><text x="393.53125" y="587.75" style="font-size: 16px; font-family: danielbd;"><tspan x="393.53125">John! Enjoy your feast!! and here is your bill!</tspan></text><path d="M871.7,602.5C482.2,580.3 656.4,624.7 316.7,602.5" stroke="#000000" fill="none" style="stroke-width: 2; marker-end: url(&quot;#markerArrowBlock&quot;);"></path></g><g class="signal"><text x="443.875" y="630.25" style="font-size: 16px; font-family: danielbd;"><tspan x="443.875">oh! itsssss gooddddd!!! thanksssss!</tspan></text><path d="M316.7,645.0C517.2,622.8 453.2,667.2 871.7,645.0" stroke="#000000" fill="none" style="stroke-width: 2; marker-end: url(&quot;#markerArrowBlock&quot;);"></path></g></svg>